<svg width="48" height="48" viewBox="0 0 48 48" fill="none" xmlns="http://www.w3.org/2000/svg">
<rect width="48" height="48" fill="black"/>
<path d="M21.9322 25.4483C21.9322 26.3816 21.6175 27.146 20.9881 27.7414L17.5593 31H15.3729L11.9441 27.7414C11.3147 27.146 11 26.3816 11 25.4483V17H13.5591V25.3517C13.5591 25.754 13.6668 26.0598 13.8821 26.269L16.491 28.8276L19.0501 26.269C19.2654 26.0598 19.3731 25.754 19.3731 25.3517V17H21.9322V25.4483Z" fill="white"/>
<path d="M37 25.4483C37 26.3816 36.6853 27.146 36.0559 27.7414L32.6271 31H30.4407L27.0119 27.7414C26.3825 27.146 26.0678 26.3816 26.0678 25.4483V17H28.6269V25.3517C28.6269 25.754 28.7346 26.0598 28.9499 26.269L31.5587 28.8276L34.1179 26.269C34.3332 26.0598 34.4409 25.754 34.4409 25.3517V17H37V25.4483Z" fill="white"/>
</svg>
